<svg width="128" height="128" viewBox="0 0 128 128" fill="none" xmlns="http://www.w3.org/2000/svg">
  <circle cx="64" cy="64" r="64" fill="#8A2BE2"/>
  <path d="M40 30C40 27.7909 41.7909 26 44 26H76.3431C77.404 26 78.4214 26.4214 79.1716 27.1716L93.8284 41.8284C94.5786 42.5786 95 43.596 95 44.6569V98C95 100.209 93.2091 102 91 102H44C41.7909 102 40 100.209 40 98V30Z" fill="white"/>
  <path d="M79 26V42C79 43.1046 79.8954 44 81 44H95L79 26Z" fill="#E0E0E0"/>
  <path d="M67.5 55C67.5 53.067 65.933 51.5 64 51.5C62.067 51.5 60.5 53.067 60.5 55H67.5ZM61.5251 77.4749C62.892 78.8417 65.108 78.8417 66.4749 77.4749L80.799 63.1508C82.1658 61.7839 82.1658 59.5678 80.799 58.201C79.4322 56.8342 77.2161 56.8342 75.8492 58.201L64 70.0503L52.1508 58.201C50.7839 56.8342 48.5678 56.8342 47.201 58.201C45.8342 59.5678 45.8342 61.7839 47.201 63.1508L61.5251 77.4749ZM60.5 55V75H67.5V55H60.5Z" fill="#8A2BE2"/>
</svg>